# xmcd
#
# Track frame offsets: 
#        182
#        13387
#        26062
#        38232
#        51567
#        64155
#        75657
#        88480
#        101152
#        113047
#        124617
#        135502
#        148540
#        160405
#        172837
#        183642
#        194995
#        207272
#        218942
#        229762
#        242062
#        253020
#        266172
#        277245
#        288350
#        301782
#        313272
#        325497
#
# Disc length: 4470 seconds
#
# Revision: 8
# Processed by: cddbd v1.5.2PL0 Copyright (c) Steve Scherf et al.
# Submitted via: ExactAudioCopy v1.3
#
DISCID=bd11741c
DTITLE=Hank Williams - The Original Singles Collection Plus Disc 2
DYEAR=1990
DGENRE=Country
TTITLE0=Mind Your Own Business
TTITLE1=There'll Be No Teardrops Tonight
TTITLE2=Lost Highway
TTITLE3=You're Gonna Change (Or I'm Gonna Leave)
TTITLE4=I'm So Lonesome I Could Cry
TTITLE5=My Bucket's Got A Hole In It
TTITLE6=May You Never Be Alone
TTITLE7=I Just Don't Like This Kind Of Living
TTITLE8=Long Gone Lonesome Blues
TTITLE9=My Son Calls Another Man Daddy
TTITLE10=Why Don't You Love Me
TTITLE11=A House Without Love
TTITLE12=Why Should We Try Anymore
TTITLE13=They'll Never Take Her Love From Me
TTITLE14=Moanin' The Blues
TTITLE15=Nobody's Lonesome For Me
TTITLE16=Cold Cold Heart
TTITLE17=Dear John
TTITLE18=I Can't Help It (If I'm Still In Love With You)
TTITLE19=Howlin' At The Moon
TTITLE20=My Heart Would Know
TTITLE21=Hey Good Lookin'
TTITLE22=(I Heard That) Lonesome Whistle
TTITLE23=Crazy Heart
TTITLE24=I'd Still Want You
TTITLE25=Baby We're Really In Love
TTITLE26=I'm Sorry For You My Friend
TTITLE27=Honky Tonk Blues
EXTD=3CD: PolyGram/Mercury Nashville 847 194-2 (1991-07-01), UPC 04228
EXTD=4719421.
EXTT0=(Hank Williams)
EXTT1=(Hank Williams)
EXTT2=(Leon Payne)
EXTT3=(Hank Williams)
EXTT4=(Hank Williams)
EXTT5=(Clarence Williams)
EXTT6=(Hank Williams)
EXTT7=(Hank Williams)
EXTT8=(Hank Williams)
EXTT9=(Jewell House/Hank Williams)
EXTT10=(Hank Williams)
EXTT11=(Hank Williams)
EXTT12=(Hank Williams)
EXTT13=(Leon Payne)
EXTT14=(Hank Williams)
EXTT15=(Hank Williams)
EXTT16=(Hank Williams)
EXTT17=(Tex Ritter/Aubrey Gass)
EXTT18=(Hank Williams)
EXTT19=(Hank Williams)
EXTT20=(Hank Williams)
EXTT21=(Hank Williams)
EXTT22=(Hank Williams/Jimmie Davis)
EXTT23=(Maurice Murray/Fred Rose)
EXTT24=(Hank Williams)
EXTT25=(Hank Williams)
EXTT26=(Hank Williams)
EXTT27=(Hank Williams)
PLAYORDER=
